<svg xmlns="http://www.w3.org/2000/svg" xmlns:xlink="http://www.w3.org/1999/xlink" width="1920" zoomAndPan="magnify" viewBox="0 0 1440 809.999993" height="1080" preserveAspectRatio="xMidYMid meet" version="1.0"><defs><clipPath id="b0410bb1e2"><path d="M 628.820312 289.800781 L 811.070312 289.800781 L 811.070312 520.050781 L 628.820312 520.050781 Z M 628.820312 289.800781 " clip-rule="nonzero"/></clipPath></defs><g clip-path="url(#b0410bb1e2)"><path fill="#9c1126" d="M 794.390625 459.324219 L 799.222656 418.824219 L 807.949219 457.917969 Z M 786.617188 502.472656 L 779.226562 499.472656 L 793.769531 462.273438 L 807.257812 460.871094 Z M 770.777344 510.132812 L 777.792969 501.984375 L 783.65625 504.367188 Z M 765.027344 512.421875 L 753.464844 508.878906 L 758.539062 497.738281 L 774.714844 501.171875 Z M 749.070312 485.738281 L 756.082031 496.230469 L 752.144531 504.871094 Z M 737.855469 506.542969 L 751.238281 418.695312 L 762.898438 358.886719 L 791.601562 339.375 L 775.910156 423.921875 L 767.046875 429.851562 C 767.03125 429.859375 767.023438 429.875 767.015625 429.882812 C 766.914062 429.953125 766.824219 430.03125 766.746094 430.121094 C 766.742188 430.128906 766.738281 430.132812 766.734375 430.136719 C 766.664062 430.226562 766.605469 430.328125 766.554688 430.429688 C 766.546875 430.445312 766.535156 430.457031 766.527344 430.472656 L 745.308594 478.914062 C 745.304688 478.917969 745.304688 478.925781 745.304688 478.929688 C 745.257812 479.039062 745.226562 479.15625 745.207031 479.277344 C 745.203125 479.304688 745.203125 479.332031 745.199219 479.363281 C 745.191406 479.46875 745.191406 479.570312 745.203125 479.675781 C 745.207031 479.691406 745.203125 479.707031 745.207031 479.722656 L 748.992188 503.277344 Z M 734.875 507.113281 L 714.542969 507.113281 C 714.488281 506.074219 714.324219 504.664062 714.085938 502.714844 C 713.796875 500.300781 713.359375 497.085938 712.789062 493.128906 L 746.828125 428.652344 Z M 712.035156 488.027344 C 711.15625 482.136719 710.042969 474.972656 708.714844 466.613281 L 730.808594 353.984375 L 759.925781 359.1875 L 748.425781 418.171875 C 748.421875 418.191406 748.417969 418.210938 748.417969 418.230469 L 748.140625 420.039062 L 712.082031 488.332031 C 712.066406 488.230469 712.054688 488.132812 712.035156 488.027344 Z M 679.253906 491.003906 L 664.628906 415.625 L 691.992188 383.054688 C 693.460938 391.679688 695.035156 400.996094 696.628906 410.523438 C 696.636719 410.585938 696.644531 410.648438 696.660156 410.710938 C 701.804688 441.457031 707.160156 474.320312 709.882812 493 C 709.882812 493.023438 709.890625 493.050781 709.894531 493.078125 C 710.789062 499.230469 711.398438 503.832031 711.617188 506.296875 Z M 687.21875 516.769531 L 680.324219 494.683594 L 709.269531 508.355469 C 703.328125 510.550781 691.558594 515.089844 687.21875 516.769531 Z M 663.078125 497.367188 L 677.03125 493.726562 L 683.496094 514.4375 Z M 632.785156 393.257812 L 661.792969 416.023438 L 676.328125 490.945312 L 661.027344 494.9375 Z M 649.425781 341.796875 L 661.078125 411.820312 L 631.941406 388.957031 Z M 690.945312 379.847656 L 663.996094 411.925781 L 652.101562 340.480469 Z M 712.121094 327.488281 L 728.164062 352.613281 L 707.40625 458.429688 C 706.667969 453.832031 705.875 448.949219 705.023438 443.761719 C 703.125 432.140625 701.183594 420.476562 699.488281 410.332031 Z M 752.054688 295.484375 L 729.417969 349.257812 L 713.210938 323.875 Z M 760.007812 356.289062 L 731.691406 351.226562 L 754.484375 297.089844 Z M 791.511719 335.972656 L 762.808594 355.484375 L 757.222656 295.660156 Z M 794.363281 415.03125 L 776.511719 445.246094 L 769.683594 431.539062 Z M 778.277344 447.878906 L 796.570312 416.921875 L 791.640625 458.25 Z M 757.378906 493.019531 L 748.242188 479.347656 L 767.921875 434.421875 L 774.839844 448.308594 Z M 777.039062 450.542969 L 791.039062 461.410156 L 776.488281 498.617188 L 759.660156 495.042969 Z M 811.121094 459.0625 C 811.117188 459.054688 811.121094 459.039062 811.117188 459.027344 C 811.117188 459.007812 811.109375 458.984375 811.105469 458.960938 C 811.101562 458.929688 811.101562 458.894531 811.09375 458.863281 L 800.191406 410.027344 C 800.164062 409.925781 800.128906 409.828125 800.085938 409.730469 C 800.074219 409.707031 800.058594 409.683594 800.046875 409.660156 C 800.007812 409.585938 799.960938 409.511719 799.90625 409.445312 C 799.894531 409.433594 799.886719 409.417969 799.875 409.402344 C 799.804688 409.328125 799.734375 409.257812 799.648438 409.195312 C 799.628906 409.183594 799.609375 409.167969 799.589844 409.15625 C 799.519531 409.109375 799.449219 409.070312 799.371094 409.035156 C 799.355469 409.027344 799.34375 409.015625 799.328125 409.011719 C 799.316406 409.007812 799.304688 409.003906 799.296875 409.003906 C 799.28125 408.996094 799.269531 408.988281 799.253906 408.984375 C 799.167969 408.953125 799.085938 408.9375 799 408.921875 C 798.984375 408.921875 798.96875 408.921875 798.953125 408.921875 C 798.863281 408.910156 798.777344 408.910156 798.691406 408.914062 C 798.660156 408.917969 798.632812 408.921875 798.601562 408.925781 C 798.515625 408.9375 798.429688 408.957031 798.347656 408.984375 C 798.332031 408.988281 798.316406 408.988281 798.304688 408.992188 C 798.210938 409.03125 798.117188 409.078125 798.035156 409.132812 C 798.023438 409.136719 798.011719 409.140625 798 409.148438 L 779.230469 421.703125 L 795.042969 336.523438 C 795.042969 336.507812 795.042969 336.496094 795.042969 336.480469 C 795.054688 336.398438 795.0625 336.3125 795.0625 336.226562 C 795.0625 336.191406 795.054688 336.160156 795.050781 336.128906 C 795.046875 336.058594 795.039062 335.992188 795.023438 335.929688 C 795.011719 335.890625 795 335.855469 794.988281 335.820312 C 794.96875 335.761719 794.949219 335.703125 794.921875 335.644531 C 794.902344 335.609375 794.882812 335.570312 794.863281 335.535156 C 794.847656 335.507812 794.835938 335.480469 794.820312 335.453125 C 794.804688 335.429688 794.78125 335.410156 794.761719 335.386719 C 794.75 335.367188 794.738281 335.34375 794.722656 335.328125 L 756.464844 290.351562 C 756.457031 290.34375 756.449219 290.335938 756.445312 290.328125 C 756.402344 290.28125 756.359375 290.242188 756.3125 290.203125 C 756.296875 290.1875 756.277344 290.164062 756.253906 290.152344 C 756.191406 290.101562 756.121094 290.054688 756.046875 290.011719 C 756.035156 290.007812 756.019531 290.003906 756.007812 289.996094 C 755.945312 289.964844 755.882812 289.9375 755.8125 289.917969 C 755.785156 289.90625 755.753906 289.902344 755.726562 289.894531 C 755.683594 289.882812 755.640625 289.871094 755.597656 289.863281 C 755.585938 289.863281 755.578125 289.863281 755.566406 289.863281 C 755.535156 289.859375 755.503906 289.859375 755.472656 289.855469 C 755.417969 289.851562 755.367188 289.847656 755.3125 289.851562 C 755.28125 289.851562 755.25 289.859375 755.21875 289.859375 C 755.167969 289.863281 755.117188 289.871094 755.070312 289.882812 C 755.035156 289.890625 755 289.902344 754.964844 289.914062 C 754.921875 289.925781 754.875 289.941406 754.832031 289.960938 C 754.796875 289.972656 754.765625 289.988281 754.730469 290.007812 C 754.683594 290.03125 754.644531 290.058594 754.601562 290.082031 C 754.578125 290.097656 754.558594 290.109375 754.535156 290.121094 L 710.4375 322.351562 C 710.410156 322.375 710.386719 322.398438 710.363281 322.421875 C 710.324219 322.453125 710.289062 322.484375 710.253906 322.515625 C 710.222656 322.550781 710.195312 322.585938 710.171875 322.621094 C 710.136719 322.65625 710.109375 322.695312 710.082031 322.738281 C 710.058594 322.773438 710.039062 322.8125 710.019531 322.851562 C 709.996094 322.894531 709.972656 322.9375 709.953125 322.984375 C 709.9375 323.027344 709.929688 323.066406 709.914062 323.109375 C 709.898438 323.15625 709.886719 323.203125 709.878906 323.253906 C 709.875 323.269531 709.871094 323.28125 709.867188 323.296875 L 697.972656 401.296875 C 695.8125 388.460938 694.320312 379.695312 694.289062 379.53125 C 694.285156 379.496094 694.273438 379.464844 694.265625 379.429688 C 694.261719 379.40625 694.253906 379.378906 694.246094 379.351562 C 694.226562 379.28125 694.199219 379.214844 694.167969 379.148438 C 694.164062 379.136719 694.160156 379.128906 694.15625 379.117188 C 694.113281 379.039062 694.070312 378.972656 694.019531 378.90625 C 694.003906 378.882812 693.984375 378.863281 693.964844 378.84375 C 693.945312 378.816406 693.921875 378.789062 693.898438 378.761719 L 650.96875 335.25 C 650.953125 335.238281 650.9375 335.226562 650.921875 335.214844 C 650.863281 335.15625 650.792969 335.101562 650.722656 335.054688 C 650.691406 335.039062 650.660156 335.019531 650.628906 335 C 650.5625 334.964844 650.492188 334.9375 650.417969 334.910156 C 650.386719 334.898438 650.359375 334.886719 650.328125 334.878906 C 650.226562 334.851562 650.121094 334.832031 650.011719 334.824219 C 650.011719 334.824219 650.011719 334.824219 650.007812 334.824219 C 649.914062 334.820312 649.816406 334.828125 649.714844 334.84375 C 649.703125 334.84375 649.691406 334.851562 649.679688 334.851562 C 649.671875 334.855469 649.660156 334.855469 649.652344 334.855469 C 649.628906 334.859375 649.605469 334.875 649.582031 334.878906 C 649.507812 334.898438 649.429688 334.925781 649.359375 334.957031 C 649.328125 334.972656 649.296875 334.992188 649.265625 335.007812 C 649.195312 335.042969 649.132812 335.089844 649.070312 335.140625 C 649.042969 335.15625 649.019531 335.175781 648.996094 335.195312 C 648.917969 335.265625 648.84375 335.34375 648.785156 335.433594 C 648.773438 335.445312 648.769531 335.457031 648.761719 335.472656 C 648.710938 335.550781 648.664062 335.636719 648.628906 335.722656 C 648.625 335.734375 648.617188 335.746094 648.609375 335.757812 L 628.898438 388.941406 C 628.890625 388.964844 628.886719 388.988281 628.878906 389.015625 C 628.867188 389.046875 628.859375 389.074219 628.851562 389.109375 C 628.835938 389.164062 628.828125 389.21875 628.820312 389.277344 C 628.820312 389.304688 628.816406 389.332031 628.8125 389.359375 C 628.808594 389.441406 628.808594 389.523438 628.820312 389.609375 C 628.820312 389.621094 628.824219 389.636719 628.828125 389.648438 C 628.835938 389.710938 628.847656 389.765625 628.863281 389.824219 L 658.648438 497.066406 C 658.652344 497.078125 658.660156 497.085938 658.664062 497.097656 C 658.699219 497.210938 658.746094 497.320312 658.808594 497.417969 C 658.820312 497.441406 658.835938 497.464844 658.851562 497.488281 C 658.921875 497.59375 659.007812 497.691406 659.101562 497.773438 C 659.105469 497.773438 659.109375 497.78125 659.113281 497.785156 L 685.394531 519.761719 C 685.40625 519.769531 685.417969 519.777344 685.429688 519.785156 C 685.46875 519.8125 685.507812 519.839844 685.550781 519.867188 C 685.574219 519.882812 685.605469 519.902344 685.632812 519.917969 C 685.671875 519.941406 685.71875 519.957031 685.761719 519.976562 C 685.792969 519.992188 685.816406 520.003906 685.847656 520.011719 C 685.902344 520.03125 685.953125 520.042969 686.007812 520.058594 C 686.03125 520.058594 686.050781 520.066406 686.074219 520.070312 C 686.152344 520.085938 686.230469 520.09375 686.308594 520.09375 C 686.390625 520.09375 686.46875 520.085938 686.550781 520.070312 C 686.574219 520.066406 686.601562 520.058594 686.625 520.054688 C 686.664062 520.042969 686.699219 520.039062 686.738281 520.027344 C 686.75 520.023438 686.761719 520.015625 686.777344 520.007812 C 686.792969 520.003906 686.808594 520.003906 686.824219 519.996094 C 696.53125 516.238281 711.242188 510.597656 713.230469 509.984375 L 736.097656 509.984375 C 736.101562 509.984375 736.101562 509.984375 736.101562 509.984375 C 736.105469 509.984375 736.105469 509.984375 736.105469 509.984375 C 736.230469 509.980469 736.347656 509.960938 736.464844 509.933594 C 736.476562 509.929688 736.488281 509.929688 736.503906 509.925781 L 749.453125 506.132812 L 750.070312 510 C 750.070312 510 750.074219 510 750.074219 510 C 750.09375 510.121094 750.128906 510.230469 750.175781 510.339844 C 750.191406 510.371094 750.207031 510.398438 750.21875 510.425781 C 750.265625 510.515625 750.320312 510.597656 750.382812 510.675781 C 750.394531 510.691406 750.40625 510.707031 750.414062 510.71875 C 750.492188 510.808594 750.582031 510.882812 750.679688 510.953125 C 750.707031 510.96875 750.734375 510.980469 750.761719 511 C 750.804688 511.023438 750.84375 511.054688 750.890625 511.074219 C 750.929688 511.09375 750.96875 511.101562 751.007812 511.113281 C 751.03125 511.121094 751.046875 511.136719 751.066406 511.140625 L 765.085938 515.4375 C 765.09375 515.441406 765.109375 515.441406 765.121094 515.445312 C 765.246094 515.480469 765.375 515.503906 765.5 515.503906 C 765.601562 515.503906 765.699219 515.492188 765.796875 515.46875 C 765.898438 515.449219 765.996094 515.417969 766.089844 515.375 L 787.890625 505.609375 C 787.957031 505.578125 788.023438 505.542969 788.082031 505.503906 C 788.089844 505.5 788.09375 505.496094 788.101562 505.492188 C 788.207031 505.425781 788.296875 505.335938 788.378906 505.242188 C 788.394531 505.226562 788.410156 505.207031 788.425781 505.1875 C 788.484375 505.113281 788.542969 505.03125 788.585938 504.9375 L 810.976562 459.816406 C 811.003906 459.765625 811.019531 459.710938 811.039062 459.65625 C 811.046875 459.636719 811.058594 459.613281 811.066406 459.589844 C 811.089844 459.507812 811.109375 459.421875 811.117188 459.335938 C 811.121094 459.308594 811.117188 459.277344 811.121094 459.25 C 811.121094 459.1875 811.125 459.125 811.121094 459.0625 " fill-opacity="1" fill-rule="nonzero"/></g></svg>