<svg xmlns="http://www.w3.org/2000/svg" xmlns:xlink="http://www.w3.org/1999/xlink" width="1920" zoomAndPan="magnify" viewBox="0 0 1440 809.999993" height="1080" preserveAspectRatio="xMidYMid meet" version="1.0"><defs><clipPath id="2246375d9f"><path d="M 622 296.28125 L 815 296.28125 L 815 513.78125 L 622 513.78125 Z M 622 296.28125 " clip-rule="nonzero"/></clipPath><clipPath id="36f5f179c4"><path d="M 813 410 L 835.019531 410 L 835.019531 432 L 813 432 Z M 813 410 " clip-rule="nonzero"/></clipPath><clipPath id="9e17a893f0"><path d="M 604.769531 378 L 616 378 L 616 390 L 604.769531 390 Z M 604.769531 378 " clip-rule="nonzero"/></clipPath></defs><g clip-path="url(#2246375d9f)"><path fill="#9c1126" d="M 779.152344 447.882812 L 796.527344 417.355469 L 796.601562 417.222656 L 797.738281 366.539062 L 797.738281 366.4375 C 797.738281 366.4375 794.769531 357.566406 794.769531 357.566406 L 753.601562 384.886719 L 753.453125 384.980469 L 729.785156 441.078125 L 735.679688 357.5 L 735.695312 357.316406 L 704.652344 303.59375 L 696.007812 296.25 L 670.3125 350.996094 L 685.730469 454.964844 L 691.121094 470.640625 L 690.875 470.054688 L 656.898438 416.585938 L 656.804688 416.4375 L 623.125 401.441406 L 622.003906 408.488281 L 629.046875 445.253906 L 629.085938 445.429688 L 664.839844 481.304688 C 664.839844 481.304688 666.027344 487.074219 666.027344 487.074219 L 689.066406 512.34375 L 709.222656 513.589844 L 710.46875 513.664062 L 711.707031 513.589844 L 731.621094 512.359375 L 731.859375 512.34375 L 732.460938 511.683594 C 732.460938 511.683594 748.515625 507.488281 748.515625 507.488281 L 748.574219 507.472656 L 794.734375 484.398438 L 794.894531 484.316406 L 813.308594 451.636719 L 814.546875 444.511719 L 779.148438 447.882812 Z M 811.863281 445.957031 L 802.601562 453.148438 L 768.722656 463.300781 L 778.417969 449.152344 L 811.863281 445.964844 Z M 756.175781 432.410156 L 751.726562 411.289062 L 786.292969 376.980469 C 785.894531 382.554688 780.964844 407.242188 777.410156 424.089844 Z M 776.300781 425.800781 L 755.75 454.765625 L 756.324219 433.625 Z M 755.144531 433.269531 L 754.527344 456.117188 L 732.542969 456.398438 L 750.894531 413.070312 L 755.152344 433.269531 Z M 753.941406 457.308594 L 748.738281 464.644531 C 748.738281 464.644531 748.648438 464.554688 748.648438 464.554688 L 724.339844 475.757812 C 724.339844 475.757812 732.039062 457.582031 732.039062 457.582031 L 753.949219 457.300781 Z M 756.515625 473.332031 L 753.90625 486.058594 L 735.804688 481.28125 L 748.589844 466.109375 L 756.507812 473.332031 Z M 753.667969 469.136719 L 775.296875 451.613281 L 766.851562 463.945312 L 756.855469 472.050781 L 753.675781 469.144531 Z M 734.558594 480.925781 L 723.859375 477.277344 L 746.363281 466.910156 C 746.363281 466.910156 734.550781 480.925781 734.550781 480.925781 Z M 722.746094 476.492188 C 722.746094 476.492188 721.789062 476.9375 721.789062 476.9375 L 718.898438 485.574219 L 718.898438 485.605469 C 718.898438 485.605469 714.144531 496.808594 714.144531 496.808594 L 721.144531 464.703125 L 730.332031 458.585938 L 722.753906 476.484375 Z M 714.664062 501.976562 L 719.996094 486.035156 L 719.996094 486.019531 C 719.996094 486.019531 723.257812 478.332031 723.257812 478.332031 L 733.742188 481.90625 L 733.699219 481.957031 L 733.824219 481.988281 L 722.730469 499.515625 L 714.664062 501.984375 Z M 735.027344 482.296875 L 753.265625 487.109375 L 738.710938 503.074219 C 738.710938 503.074219 724.058594 499.628906 724.058594 499.628906 Z M 742.871094 500.265625 L 749.019531 493.523438 C 749.019531 493.523438 752.660156 495.410156 752.660156 495.410156 L 742.871094 500.273438 Z M 749.847656 492.613281 L 754.800781 487.175781 L 754.914062 487.058594 L 757.820312 472.910156 L 757.746094 472.84375 C 757.746094 472.84375 766.230469 465.960938 766.230469 465.960938 L 762.085938 480.125 L 753.816406 494.667969 Z M 762.953125 481.007812 L 778.070312 482.789062 L 755.597656 493.949219 L 762.960938 481.007812 Z M 763.398438 479.867188 L 767.773438 464.8125 L 801.734375 454.640625 C 799.035156 458.660156 787.488281 472.726562 779.867188 481.800781 Z M 777.613281 448.210938 L 752.785156 468.328125 L 749.632812 465.445312 L 755.417969 457.285156 L 755.683594 457.285156 C 755.683594 457.285156 755.691406 456.894531 755.691406 456.894531 L 778.308594 425.007812 L 781 423.957031 L 794.644531 418.269531 L 777.605469 448.210938 Z M 796.566406 366.613281 L 795.445312 416.660156 L 780.570312 422.859375 L 778.746094 423.570312 C 779.421875 420.367188 781.488281 410.421875 783.441406 400.515625 C 787.175781 381.488281 787.660156 376.9375 787.445312 375.683594 L 794.390625 360.125 Z M 754.5 385.714844 L 793.101562 360.101562 L 786.308594 375.304688 L 751.867188 409.488281 Z M 752.898438 389.371094 L 750.507812 410.941406 L 731.171875 456.605469 L 721.929688 462.757812 Z M 728.492188 442.574219 L 727.136719 447.367188 L 720.070312 464.117188 L 713.113281 495.972656 L 718.105469 425.273438 L 718.335938 425.132812 L 718.140625 424.792969 L 721.515625 376.980469 L 723.679688 374.140625 L 734.359375 359.480469 Z M 660.445312 452.46875 L 663.3125 467.082031 L 645.554688 449.351562 L 660.445312 452.472656 Z M 644.160156 447.847656 C 641.699219 441.640625 633.511719 420.46875 632.050781 415.132812 L 661.023438 435.589844 L 660.382812 451.25 L 644.160156 447.855469 Z M 661.542969 451.917969 L 662.140625 437.207031 L 680.867188 466.667969 L 682.527344 469.285156 C 682.527344 469.285156 672.292969 464.570312 672.292969 464.570312 L 666.28125 470.046875 L 664.820312 468.585938 L 661.546875 451.925781 Z M 672.332031 466.117188 L 684.246094 480.257812 L 664.871094 472.917969 C 664.871094 472.917969 672.324219 466.117188 672.324219 466.117188 Z M 687.117188 481.996094 L 687.242188 481.964844 L 687.199219 481.914062 L 698.304688 478.132812 C 698.304688 478.132812 706.277344 501.984375 706.277344 501.984375 C 706.277344 501.984375 698.21875 499.515625 698.21875 499.515625 L 687.125 481.988281 Z M 696.882812 499.636719 L 696.097656 499.820312 L 680.101562 483.839844 L 685.914062 482.304688 Z M 699.210938 477.09375 C 699.210938 477.09375 699.203125 477.0625 699.203125 477.0625 L 693.828125 440.476562 L 716.859375 426.0625 L 711.488281 502.082031 L 707.234375 501.117188 L 699.203125 477.101562 Z M 703.214844 399.054688 L 684.972656 379.632812 L 699.402344 321.351562 C 702.332031 326.765625 713.144531 356.410156 720.277344 376.660156 Z M 720.210938 378.707031 L 717.089844 422.945312 L 703.976562 400.019531 L 720.21875 378.707031 Z M 702.785156 400.324219 L 716.746094 424.734375 L 693.648438 439.1875 L 685.179688 381.53125 L 702.785156 400.316406 Z M 714.109375 499.945312 C 714.109375 499.945312 714.09375 499.992188 714.09375 499.992188 L 713.113281 502.921875 L 712.921875 502.75 Z M 703.6875 304.273438 L 734.394531 357.417969 L 722.730469 373.429688 L 721.128906 375.527344 C 719.882812 372.003906 715.644531 360.042969 711.289062 348.210938 C 702.875 325.339844 700.605469 320.660156 699.675781 319.683594 L 697 298.632812 L 703.683594 304.273438 Z M 695.894531 299.296875 L 698.519531 319.980469 L 684.148438 378.027344 L 671.597656 351.085938 Z M 672.121094 355.03125 L 683.75 379.976562 L 692.582031 440.082031 L 686.621094 452.84375 L 672.121094 355.039062 Z M 686.960938 454.90625 L 692.894531 442.210938 L 697.914062 476.359375 L 693.6875 474.410156 L 686.96875 454.90625 Z M 697.074219 477.285156 L 686.382812 480.925781 L 674.570312 466.910156 C 674.570312 466.910156 697.074219 477.285156 697.074219 477.285156 Z M 689.832031 470.605469 L 690.882812 473.125 L 684.519531 470.195312 L 662.179688 435.035156 L 658.09375 420.65625 Z M 655.914062 417.332031 L 660.605469 433.832031 L 631.71875 413.433594 L 625.230469 403.675781 L 655.921875 417.339844 Z M 623.21875 408.464844 L 623.945312 403.890625 L 630.671875 414.003906 C 630.707031 415.109375 631.730469 418.585938 636.542969 431.355469 C 639.148438 438.257812 641.800781 445.058594 642.78125 447.558594 L 641.652344 447.320312 L 630.152344 444.652344 L 623.21875 408.472656 Z M 631.523438 446.1875 L 641.402344 448.476562 L 643.433594 448.898438 L 665.40625 470.835938 L 663.121094 472.917969 L 664.410156 479.175781 C 664.410156 479.175781 631.523438 446.179688 631.523438 446.179688 Z M 667.035156 486.058594 L 664.566406 474.074219 C 664.566406 474.074219 684.246094 481.519531 684.246094 481.519531 Z M 667.679688 487.109375 L 678.765625 484.183594 L 694.730469 500.132812 L 682.230469 503.074219 L 667.671875 487.109375 Z M 709.375 512.402344 L 689.628906 511.1875 L 683.148438 504.078125 L 697.644531 500.664062 Z M 699.9375 501.28125 L 706.738281 503.363281 C 706.738281 503.363281 707.300781 505.046875 707.300781 505.046875 L 709.40625 510.75 L 699.945312 501.28125 Z M 708.425781 504.664062 L 707.679688 502.421875 L 711.839844 503.371094 L 712.691406 504.152344 C 712.691406 504.152344 712.519531 504.671875 712.519531 504.671875 L 710.472656 510.214844 L 708.425781 504.671875 Z M 713.632812 505.0625 L 714.203125 503.363281 C 714.203125 503.363281 721.003906 501.28125 721.003906 501.28125 L 711.535156 510.75 Z M 731.3125 511.1875 L 711.5625 512.402344 C 711.5625 512.402344 723.296875 500.664062 723.296875 500.664062 L 737.800781 504.078125 Z M 748.164062 506.347656 L 733.9375 510.0625 C 733.9375 510.0625 740.652344 502.691406 740.652344 502.691406 L 754.253906 495.941406 L 754.699219 495.941406 L 754.699219 495.710938 L 780.214844 483.046875 L 782.28125 483.292969 L 792.359375 484.257812 L 748.160156 506.351562 Z M 812.242188 451.132812 L 794.15625 483.234375 L 782.417969 482.105469 L 781.273438 481.972656 C 782.996094 479.917969 787.621094 474.378906 792.160156 468.800781 C 800.917969 458.066406 803.023438 455.0625 803.410156 454.015625 L 813.003906 446.566406 L 812.234375 451.132812 Z M 812.242188 451.132812 " fill-opacity="1" fill-rule="nonzero"/></g><path fill="#9c1126" d="M 653.242188 389.992188 C 653.242188 381.53125 651.0625 379.351562 642.601562 379.351562 C 651.0625 379.351562 653.242188 377.171875 653.242188 368.710938 C 653.242188 377.171875 655.421875 379.351562 663.882812 379.351562 C 655.421875 379.351562 653.242188 381.53125 653.242188 389.992188 Z M 653.242188 389.992188 " fill-opacity="1" fill-rule="nonzero"/><g clip-path="url(#36f5f179c4)"><path fill="#9c1126" d="M 824.460938 431.964844 C 824.460938 423.503906 822.28125 421.324219 813.820312 421.324219 C 822.28125 421.324219 824.460938 419.144531 824.460938 410.683594 C 824.460938 419.144531 826.640625 421.324219 835.101562 421.324219 C 826.640625 421.324219 824.460938 423.503906 824.460938 431.964844 Z M 824.460938 431.964844 " fill-opacity="1" fill-rule="nonzero"/></g><path fill="#9c1126" d="M 758.390625 347.058594 C 758.390625 338.597656 756.210938 336.417969 747.75 336.417969 C 756.210938 336.417969 758.390625 334.238281 758.390625 325.777344 C 758.390625 334.238281 760.570312 336.417969 769.03125 336.417969 C 760.570312 336.417969 758.390625 338.597656 758.390625 347.058594 Z M 758.390625 347.058594 " fill-opacity="1" fill-rule="nonzero"/><path fill="#9c1126" d="M 629.664062 500.183594 C 629.664062 491.722656 627.484375 489.542969 619.023438 489.542969 C 627.484375 489.542969 629.664062 487.363281 629.664062 478.902344 C 629.664062 487.363281 631.84375 489.542969 640.304688 489.542969 C 631.84375 489.542969 629.664062 491.722656 629.664062 500.183594 Z M 629.664062 500.183594 " fill-opacity="1" fill-rule="nonzero"/><path fill="#9c1126" d="M 767.882812 421.332031 C 767.882812 415.367188 766.347656 413.832031 760.386719 413.832031 C 766.347656 413.832031 767.882812 412.296875 767.882812 406.335938 C 767.882812 412.296875 769.417969 413.832031 775.378906 413.832031 C 769.417969 413.832031 767.882812 415.367188 767.882812 421.332031 Z M 767.882812 421.332031 " fill-opacity="1" fill-rule="nonzero"/><path fill="#9c1126" d="M 648.742188 440.980469 C 648.742188 437.421875 647.824219 436.507812 644.269531 436.507812 C 647.832031 436.507812 648.742188 435.589844 648.742188 432.039062 C 648.742188 435.597656 649.664062 436.507812 653.214844 436.507812 C 649.65625 436.507812 648.742188 437.429688 648.742188 440.980469 Z M 648.742188 440.980469 " fill-opacity="1" fill-rule="nonzero"/><path fill="#9c1126" d="M 706.359375 462.632812 C 706.359375 459.074219 705.4375 458.160156 701.886719 458.160156 C 705.445312 458.160156 706.359375 457.242188 706.359375 453.691406 C 706.359375 457.25 707.277344 458.160156 710.832031 458.160156 C 707.269531 458.160156 706.359375 459.082031 706.359375 462.632812 Z M 706.359375 462.632812 " fill-opacity="1" fill-rule="nonzero"/><path fill="#9c1126" d="M 778.582031 473.460938 C 778.582031 469.898438 777.664062 468.988281 774.113281 468.988281 C 777.671875 468.988281 778.582031 468.070312 778.582031 464.515625 C 778.582031 468.074219 779.503906 468.988281 783.054688 468.988281 C 779.496094 468.988281 778.582031 469.90625 778.582031 473.460938 Z M 778.582031 473.460938 " fill-opacity="1" fill-rule="nonzero"/><path fill="#9c1126" d="M 660.976562 324.488281 C 660.976562 320.929688 660.058594 320.015625 656.507812 320.015625 C 660.066406 320.015625 660.976562 319.097656 660.976562 315.546875 C 660.976562 319.105469 661.898438 320.015625 665.449219 320.015625 C 661.890625 320.015625 660.976562 320.9375 660.976562 324.488281 Z M 660.976562 324.488281 " fill-opacity="1" fill-rule="nonzero"/><path fill="#9c1126" d="M 747.734375 373.207031 C 747.734375 369.648438 746.816406 368.734375 743.265625 368.734375 C 746.824219 368.734375 747.734375 367.816406 747.734375 364.261719 C 747.734375 367.824219 748.65625 368.734375 752.207031 368.734375 C 748.648438 368.734375 747.734375 369.652344 747.734375 373.207031 Z M 747.734375 373.207031 " fill-opacity="1" fill-rule="nonzero"/><path fill="#9c1126" d="M 794.453125 340.875 C 794.453125 337.316406 793.53125 336.402344 789.980469 336.402344 C 793.539062 336.402344 794.453125 335.484375 794.453125 331.933594 C 794.453125 335.492188 795.371094 336.402344 798.921875 336.402344 C 795.363281 336.402344 794.453125 337.324219 794.453125 340.875 Z M 794.453125 340.875 " fill-opacity="1" fill-rule="nonzero"/><path fill="#9c1126" d="M 825.003906 463.449219 C 825.003906 459.890625 824.082031 458.976562 820.53125 458.976562 C 824.089844 458.976562 825.003906 458.058594 825.003906 454.507812 C 825.003906 458.066406 825.921875 458.976562 829.472656 458.976562 C 825.914062 458.976562 825.003906 459.898438 825.003906 463.449219 Z M 825.003906 463.449219 " fill-opacity="1" fill-rule="nonzero"/><path fill="#9c1126" d="M 785.332031 508.460938 C 785.332031 504.898438 784.410156 503.988281 780.859375 503.988281 C 784.417969 503.988281 785.332031 503.070312 785.332031 499.515625 C 785.332031 503.074219 786.25 503.988281 789.800781 503.988281 C 786.242188 503.988281 785.332031 504.90625 785.332031 508.460938 Z M 785.332031 508.460938 " fill-opacity="1" fill-rule="nonzero"/><path fill="#9c1126" d="M 808.835938 390.558594 C 808.835938 387 807.917969 386.085938 804.367188 386.085938 C 807.925781 386.085938 808.835938 385.167969 808.835938 381.613281 C 808.835938 385.175781 809.757812 386.085938 813.308594 386.085938 C 809.75 386.085938 808.835938 387.003906 808.835938 390.558594 Z M 808.835938 390.558594 " fill-opacity="1" fill-rule="nonzero"/><path fill="#9c1126" d="M 728.085938 318.035156 C 728.085938 314.476562 727.164062 313.566406 723.613281 313.566406 C 727.171875 313.566406 728.085938 312.644531 728.085938 309.09375 C 728.085938 312.652344 729.003906 313.566406 732.558594 313.566406 C 728.996094 313.566406 728.085938 314.484375 728.085938 318.035156 Z M 728.085938 318.035156 " fill-opacity="1" fill-rule="nonzero"/><g clip-path="url(#9e17a893f0)"><path fill="#9c1126" d="M 609.21875 389.816406 C 610.101562 385.375 609.191406 384.460938 604.75 385.34375 C 609.191406 384.460938 610.5625 383.089844 611.445312 378.648438 C 610.5625 383.089844 611.472656 384.003906 615.914062 383.121094 C 611.472656 384.003906 610.101562 385.375 609.21875 389.816406 Z M 609.21875 389.816406 " fill-opacity="1" fill-rule="nonzero"/></g><path fill="#9c1126" d="M 618.191406 446.839844 C 618.191406 443.28125 617.273438 442.367188 613.71875 442.367188 C 617.28125 442.367188 618.191406 441.449219 618.191406 437.894531 C 618.191406 441.457031 619.113281 442.367188 622.664062 442.367188 C 619.105469 442.367188 618.191406 443.285156 618.191406 446.839844 Z M 618.191406 446.839844 " fill-opacity="1" fill-rule="nonzero"/><path fill="#9c1126" d="M 696.71875 413.765625 C 696.71875 410.207031 695.800781 409.296875 692.246094 409.296875 C 695.808594 409.296875 696.71875 408.375 696.71875 404.824219 C 696.71875 408.382812 697.636719 409.296875 701.191406 409.296875 C 697.632812 409.296875 696.71875 410.214844 696.71875 413.765625 Z M 696.71875 413.765625 " fill-opacity="1" fill-rule="nonzero"/><path fill="#9c1126" d="M 699.457031 363.9375 C 698.527344 361.328125 699.9375 358.375 702.660156 356.855469 C 702.214844 356.929688 701.769531 357.039062 701.332031 357.203125 C 697.824219 358.441406 695.835938 361.867188 696.898438 364.847656 C 697.949219 367.828125 701.648438 369.238281 705.15625 368 C 705.59375 367.84375 706.003906 367.660156 706.386719 367.445312 C 703.324219 367.957031 700.382812 366.554688 699.460938 363.953125 Z M 699.457031 363.9375 " fill-opacity="1" fill-rule="nonzero"/></svg>